<svg xmlns="http://www.w3.org/2000/svg" xmlns:xlink="http://www.w3.org/1999/xlink" width="500" zoomAndPan="magnify" viewBox="0 0 375 374.999991" height="500" preserveAspectRatio="xMidYMid meet" version="1.0"><defs><g/><clipPath id="ea48775950"><path d="M 65.625 146.933594 L 171.003906 146.933594 L 171.003906 252.3125 L 65.625 252.3125 Z M 65.625 146.933594 " clip-rule="nonzero"/></clipPath><clipPath id="e3e7678296"><path d="M 118.3125 146.933594 C 89.214844 146.933594 65.625 170.523438 65.625 199.625 C 65.625 228.722656 89.214844 252.3125 118.3125 252.3125 C 147.414062 252.3125 171.003906 228.722656 171.003906 199.625 C 171.003906 170.523438 147.414062 146.933594 118.3125 146.933594 Z M 118.3125 146.933594 " clip-rule="nonzero"/></clipPath><clipPath id="4c9eb76941"><path d="M 77.328125 167 L 159 167 L 159 232.679688 L 77.328125 232.679688 Z M 77.328125 167 " clip-rule="nonzero"/></clipPath></defs><rect x="-37.5" width="450" fill="#ffffff" y="-37.499999" height="449.999989" fill-opacity="1"/><rect x="-37.5" width="450" fill="#ffffff" y="-37.499999" height="449.999989" fill-opacity="1"/><g clip-path="url(#ea48775950)"><g clip-path="url(#e3e7678296)"><path fill="#000000" d="M 65.625 146.933594 L 171.003906 146.933594 L 171.003906 252.3125 L 65.625 252.3125 Z M 65.625 146.933594 " fill-opacity="1" fill-rule="nonzero"/></g></g><g clip-path="url(#4c9eb76941)"><path fill="#ffffff" d="M 122.527344 170.097656 L 106.292969 226.917969 C 105.679688 229.074219 106.929688 231.324219 109.078125 231.941406 C 111.234375 232.554688 113.484375 231.304688 114.101562 229.152344 L 130.335938 172.328125 C 130.949219 170.171875 129.699219 167.925781 127.546875 167.308594 C 125.390625 166.695312 123.144531 167.945312 122.527344 170.097656 Z M 87.523438 199.625 L 100.890625 212.988281 C 102.472656 214.574219 102.472656 217.144531 100.890625 218.730469 C 99.304688 220.3125 96.734375 220.3125 95.148438 218.730469 L 78.914062 202.492188 C 77.328125 200.910156 77.328125 198.335938 78.914062 196.753906 L 95.148438 180.519531 C 96.734375 178.9375 99.304688 178.9375 100.890625 180.519531 C 102.472656 182.101562 102.472656 184.675781 100.890625 186.257812 Z M 149.105469 199.625 L 135.738281 186.257812 C 134.15625 184.675781 134.15625 182.101562 135.738281 180.519531 C 137.320312 178.9375 139.894531 178.9375 141.476562 180.519531 L 157.710938 196.753906 C 159.300781 198.335938 159.300781 200.910156 157.710938 202.492188 L 141.476562 218.730469 C 139.894531 220.3125 137.320312 220.3125 135.738281 218.730469 C 134.15625 217.144531 134.15625 214.574219 135.738281 212.988281 Z M 149.105469 199.625 " fill-opacity="1" fill-rule="evenodd"/></g><g fill="#000000" fill-opacity="1"><g transform="translate(192.238938, 211.069432)"><g><path d="M 42.3125 -22.46875 C 41.40625 -22.875 40.1875 -22.46875 39.78125 -21.5625 C 32.09375 -5.875 26.328125 -0.90625 23.59375 -1.421875 C 22.46875 -1.625 18.828125 -3.75 17.921875 -21.46875 C 17.921875 -22.265625 17.3125 -22.984375 16.609375 -23.1875 C 15.796875 -23.390625 14.875 -23.1875 14.46875 -22.46875 C 13.875 -21.765625 13.265625 -20.953125 12.65625 -20.046875 C 10.125 -16.609375 6.78125 -11.953125 2.734375 -7.59375 C 2.125 -6.890625 1.625 -6.484375 1.3125 -6.28125 C 0.609375 -9.8125 4.359375 -23.390625 10.328125 -27.640625 C 12.046875 -28.859375 14.375 -29.765625 17.515625 -26.125 C 18.21875 -25.3125 19.4375 -25.203125 20.25 -25.921875 C 21.0625 -26.515625 21.15625 -27.84375 20.546875 -28.65625 C 16.703125 -33.109375 13.0625 -33 10.625 -32.1875 C 2.828125 -29.453125 -2.421875 -14.46875 -2.625 -7.59375 C -2.734375 -4.765625 -1.921875 -2.9375 -0.296875 -2.328125 C 2.234375 -1.3125 4.765625 -4.046875 5.5625 -4.953125 C 9.015625 -8.703125 12.140625 -12.75 14.375 -15.890625 C 15.484375 -4.359375 18.21875 1.421875 22.78125 2.421875 C 23.1875 2.421875 23.59375 2.53125 24 2.53125 C 30.875 2.53125 38.265625 -9.515625 43.234375 -19.84375 C 43.734375 -20.859375 43.328125 -21.96875 42.3125 -22.46875 Z M 42.3125 -22.46875 "/></g></g></g><g fill="#000000" fill-opacity="1"><g transform="translate(229.897179, 211.069432)"><g><path d="M 50.8125 -22.0625 C 50.015625 -22.78125 48.796875 -22.671875 48.09375 -21.859375 C 43.9375 -17 38.375 -14.578125 33.8125 -15.796875 C 30.0625 -16.8125 27.328125 -20.453125 26.328125 -25.921875 C 26.125 -26.828125 25.203125 -27.4375 24.296875 -27.4375 C 23.390625 -27.4375 22.578125 -26.71875 22.46875 -25.8125 C 20.34375 -10.625 8.296875 7.484375 2.53125 9.421875 C 1.828125 9.625 1.625 9.515625 1.625 9.421875 C 1.109375 9.015625 -2.328125 4.25 8.40625 -27.640625 C 8.703125 -28.65625 8.203125 -29.765625 7.1875 -30.0625 C 6.171875 -30.46875 5.0625 -29.859375 4.65625 -28.859375 C -7.09375 6.28125 -2.625 10.734375 -1.21875 12.140625 C -0.609375 12.65625 0.40625 13.46875 1.921875 13.46875 C 2.421875 13.46875 3.03125 13.359375 3.75 13.0625 C 7.484375 11.84375 12.546875 6.484375 17.109375 -1.109375 C 20.546875 -6.78125 23.1875 -12.859375 24.796875 -18.53125 C 26.71875 -15.1875 29.453125 -12.953125 32.796875 -12.046875 C 38.765625 -10.53125 45.859375 -13.359375 51.015625 -19.328125 C 51.734375 -20.140625 51.625 -21.359375 50.8125 -22.0625 Z M 50.8125 -22.0625 "/></g></g></g><g fill="#000000" fill-opacity="1"><g transform="translate(277.678582, 211.069432)"><g><path d="M 43.234375 -84.53125 C 42.515625 -85.140625 41.609375 -85.34375 40.703125 -85.140625 C 36.34375 -83.71875 28.546875 -62.5625 21.0625 -27.734375 C 20.859375 -27.125 20.546875 -26.625 20.25 -26.015625 C 19.734375 -29.96875 17.109375 -31.078125 16.203125 -31.375 C 11.84375 -32.703125 4.953125 -28.75 0.203125 -18.625 C -3.4375 -11.03125 -4.15625 -1.109375 0.40625 1.515625 C 2.625 2.828125 6.484375 2.625 12.046875 -5.46875 C 14.46875 -8.90625 16.609375 -12.25 18.625 -15.484375 C 17.515625 -9.71875 16.40625 -3.640625 15.390625 2.734375 C 13.46875 14.078125 12.046875 23.59375 11.234375 30.46875 C 9.625 43.9375 10.421875 45.765625 12.453125 46.359375 C 12.65625 46.46875 12.953125 46.46875 13.15625 46.46875 C 14.984375 46.46875 16.203125 44.140625 16.8125 42.625 C 17.3125 41.703125 16.90625 40.5 15.890625 40.09375 C 15.390625 39.78125 14.78125 39.78125 14.28125 39.984375 C 14.46875 35.640625 15.484375 25.71875 19.234375 3.4375 C 21.0625 -7.6875 22.984375 -17.609375 24.796875 -26.328125 C 32.390625 -40.703125 36.234375 -52.84375 39.375 -62.46875 C 39.78125 -63.671875 40.1875 -64.796875 40.5 -65.796875 C 45.859375 -81.90625 43.828125 -83.828125 43.234375 -84.53125 Z M 8.8125 -7.6875 C 4.953125 -2.125 2.828125 -1.625 2.328125 -1.828125 C 0.8125 -2.734375 0.296875 -9.71875 3.75 -17 C 7.1875 -24.296875 11.84375 -27.734375 14.375 -27.734375 C 14.671875 -27.734375 14.875 -27.734375 15.078125 -27.640625 C 16.703125 -27.234375 16.40625 -24.296875 16.296875 -23.484375 C 16.203125 -22.578125 16.703125 -21.671875 17.609375 -21.359375 C 15.078125 -17 12.140625 -12.453125 8.8125 -7.6875 Z M 36.84375 -67.015625 C 36.4375 -66 36.046875 -64.890625 35.734375 -63.671875 C 33.90625 -58.203125 31.890625 -52.03125 29.15625 -45.046875 C 33.40625 -61.859375 37.25 -72.375 39.6875 -77.640625 C 39.28125 -75.21875 38.375 -71.78125 36.84375 -67.015625 Z M 36.84375 -67.015625 "/></g></g></g></svg>